<?xml version="1.0" encoding="UTF-8"?>
<svg id="Capa_1" data-name="Capa 1" xmlns="http://www.w3.org/2000/svg" viewBox="0 0 32 32">
  <defs>
    <style>
      .cls-1 {
        fill: #556168;
      }

      .cls-1, .cls-2, .cls-3, .cls-4, .cls-5, .cls-6, .cls-7, .cls-8, .cls-9, .cls-10, .cls-11, .cls-12, .cls-13, .cls-14, .cls-15, .cls-16, .cls-17, .cls-18, .cls-19, .cls-20, .cls-21, .cls-22, .cls-23, .cls-24, .cls-25, .cls-26, .cls-27, .cls-28, .cls-29, .cls-30, .cls-31, .cls-32, .cls-33, .cls-34, .cls-35, .cls-36, .cls-37, .cls-38, .cls-39, .cls-40, .cls-41, .cls-42, .cls-43, .cls-44, .cls-45, .cls-46, .cls-47, .cls-48, .cls-49, .cls-50, .cls-51, .cls-52, .cls-53, .cls-54, .cls-55, .cls-56, .cls-57, .cls-58, .cls-59, .cls-60, .cls-61, .cls-62, .cls-63, .cls-64, .cls-65, .cls-66, .cls-67 {
        fill-rule: evenodd;
      }

      .cls-2 {
        fill: #3e4046;
      }

      .cls-3 {
        fill: #5a5b80;
      }

      .cls-4 {
        fill: #5f7684;
      }

      .cls-5 {
        fill: #42525c;
      }

      .cls-6 {
        fill: #8294a0;
      }

      .cls-7 {
        fill: #56557b;
      }

      .cls-8 {
        fill: #232831;
      }

      .cls-9 {
        fill: #4b575d;
      }

      .cls-10 {
        fill: #56557c;
      }

      .cls-11 {
        fill: #586572;
      }

      .cls-12 {
        fill: #404347;
      }

      .cls-13 {
        fill: #636d7a;
      }

      .cls-14 {
        fill: #222325;
      }

      .cls-15 {
        fill: #454b4d;
      }

      .cls-16 {
        fill: #5b6778;
      }

      .cls-17 {
        fill: #6d7f85;
      }

      .cls-18 {
        fill: #3d3d3e;
      }

      .cls-19 {
        fill: #5a597e;
      }

      .cls-20 {
        fill: #373d40;
      }

      .cls-21 {
        fill: #56595e;
      }

      .cls-22 {
        fill: #bed5df;
      }

      .cls-23 {
        fill: #383536;
      }

      .cls-24 {
        fill: #717c81;
      }

      .cls-25 {
        fill: #2d353a;
      }

      .cls-26 {
        fill: #232325;
      }

      .cls-27 {
        fill: #4c5253;
      }

      .cls-28 {
        fill: #798286;
      }

      .cls-29 {
        fill: #a1adce;
      }

      .cls-30 {
        fill: #363b42;
      }

      .cls-31 {
        fill: #a8b4d2;
      }

      .cls-32 {
        fill: #030303;
      }

      .cls-33 {
        fill: #282627;
      }

      .cls-34 {
        fill: #a5b6c4;
      }

      .cls-35 {
        fill: #6371a0;
      }

      .cls-36 {
        fill: #393d46;
      }

      .cls-37 {
        fill: #87a2ad;
      }

      .cls-38 {
        fill: #2b3237;
      }

      .cls-39 {
        fill: #8f9faa;
      }

      .cls-40 {
        fill: #303538;
      }

      .cls-41 {
        fill: #6e7780;
      }

      .cls-42 {
        fill: #849098;
      }

      .cls-43 {
        fill: #54547b;
      }

      .cls-44 {
        fill: #373b41;
      }

      .cls-45 {
        fill: #2f2f32;
      }

      .cls-46 {
        fill: #242629;
      }

      .cls-47 {
        fill: #566066;
      }

      .cls-48 {
        fill: #4d5258;
      }

      .cls-49 {
        fill: #626f78;
      }

      .cls-50 {
        fill: #575c86;
      }

      .cls-51 {
        fill: #5c6693;
      }

      .cls-52 {
        fill: #3f494d;
      }

      .cls-53 {
        fill: #26272a;
      }

      .cls-54 {
        fill: #6c767c;
      }

      .cls-55 {
        fill: #3f4950;
      }

      .cls-56 {
        fill: #505c65;
      }

      .cls-57 {
        fill: #8194a4;
      }

      .cls-58 {
        fill: #5d717c;
      }

      .cls-59 {
        fill: #808c91;
      }

      .cls-60 {
        fill: #384146;
      }

      .cls-61 {
        fill: #a1aecd;
      }

      .cls-62 {
        fill: #5b656a;
      }

      .cls-63 {
        fill: #747fa7;
      }

      .cls-64 {
        fill: #2c3237;
      }

      .cls-65 {
        fill: #2c2f32;
      }

      .cls-66 {
        fill: #050506;
      }

      .cls-67 {
        fill: #7582ad;
      }
    </style>
  </defs>
  <path class="cls-19" d="M13.59-.14c.45-.02,.91,0,1.36,.05-.51,.46-1.05,.87-1.62,1.26-.13-.09-.22-.21-.26-.35,.19-.31,.36-.63,.52-.95Z"/>
  <path class="cls-43" d="M23.22,10.71c-.45,.69-.97,1.33-1.57,1.91,0-.05-.04-.09-.1-.1-.11,.07-.21,.14-.31,.2-.09-.14-.23-.25-.42-.3,.24-.15,.31-.33,.21-.55,.09-.23,.2-.44,.31-.65,.26-.26,.43-.56,.52-.9h-.63c-.5,.06-.64-.18-.42-.7,.03-.37-.04-.64-.21-.8-.14-.02-.26,.02-.37,.1-.1,.37-.21,.74-.31,1.1-.24-.14-.43-.09-.58,.15,.07,.03,.14,.07,.21,.1-.34,.08-.66,.03-.94-.15-.12-.4-.1-.8,.05-1.21l.47-.9c.02-.22-.07-.39-.26-.5-.15-.68,.05-1.25,.58-1.71-.02-.06-.06-.11-.1-.15,.16-.17,.34-.2,.52-.1-.1-.25,0-.42,.31-.5-.05-.04-.08-.09-.1-.15,.28-.21,.38-.46,.31-.75-.31-.11-.62-.15-.94-.1-.5,.29-1.03,.56-1.57,.8-.17,.61-.41,1.19-.73,1.76-.27,.25-.58,.41-.94,.5-.13,.26-.27,.51-.42,.75-.27,.18-.55,.2-.84,.05-.39-.31-.51-.71-.37-1.21,.1-.89,.53-1.56,1.31-2.01,.19-.57-.02-.82-.63-.75-.68,.55-1.46,.87-2.35,.95-.27,.24-.53,.49-.78,.75-.42,.1-.83,.18-1.25,.25-.28,.41-.51,.84-.68,1.31-.56,.57-1.08,1.17-1.57,1.81-.17,.99-.48,1.93-.94,2.81-.07,.44-.07,.87,0,1.31,.19,.31,.31,.65,.37,1-.25,.75-.53,1.49-.84,2.21-.19-.51-.57-.75-1.15-.7,.04,.32,.11,.62,.21,.9v.5h-.52c.03,.19,0,.36-.1,.5,.02-.24-.01-.48-.1-.7-.28-.17-.56-.34-.84-.5,.48-1.21,.39-2.39-.26-3.51-.07-.17-.07-.33,0-.5,.48-.86,1.03-1.66,1.67-2.41,.03-.37,.07-.74,.1-1.1,1.31-1.51,2.41-3.15,3.29-4.92,.99-.47,2-.88,3.03-1.26,.59-.25,1.15-.55,1.67-.9,1.64-.3,3.17-.85,4.6-1.66,.02,.38-.16,.7-.52,.95-.68,.47-1.38,.92-2.09,1.36-.11,.4-.21,.81-.31,1.21,2.17-.54,4.23-1.36,6.17-2.46,.35-.11,.7-.18,1.05-.2-.28,.34-.41,.72-.42,1.15,1.51-.07,3.01-.22,4.5-.45,.66-.35,1.29-.75,1.88-1.21,.26-.25,.53-.5,.78-.75,.11,.01,.2,.06,.26,.15-.78,1.05-1.51,2.12-2.2,3.21-.52,.15-1.04,.18-1.57,.1-1.01,.52-2.06,.99-3.14,1.41-.5,.35-.97,.73-1.41,1.15-.15,.22-.23,.45-.26,.7,1.18,.09,2.33-.04,3.45-.4,.07,.03,.14,.07,.21,.1-.99,.76-1.86,1.63-2.61,2.61-.26,.07-.53,.14-.78,.2-.04,.19-.12,.36-.26,.5,.43,.21,.88,.35,1.36,.4-.04,.36,.07,.66,.31,.9Z"/>
  <path class="cls-35" d="M14.95,7.9c.01,.06,.05,.11,.1,.15,.34,.02,.67,.07,.99,.15,.06-.18,.14-.21,.26-.1-.31,.3-.28,.53,.1,.7,.17-.19,.38-.32,.63-.4,.13,0,.25,.04,.37,.1,.13,.83,.2,1.67,.21,2.51,.17,.14,.36,.2,.58,.2-.02,.11,0,.21,.05,.3,.18-.16,.37-.3,.58-.4,.23-.03,.44,0,.63,.1-.74-.02-1.06,.31-.94,1-.23,.09-.48,.12-.73,.1v.3c-.11-.01-.21,0-.31,.05,.13,.07,.13,.12,0,.15-.1-.07-.21-.13-.31-.2-.04-.38-.08-.75-.1-1.1-.6-.08-.69-.35-.26-.8,.07,.32,.24,.42,.52,.3,.07-.64,.06-1.28-.05-1.91-.25-.02-.5,.01-.73,.1-.14,.39-.23,.79-.26,1.21-.15,.09-.3,.09-.47,0-.37,.25-.76,.27-1.15,.05,.14-.08,.21-.2,.21-.35,0-.1-.05-.17-.16-.2-.26,.12-.52,.21-.78,.25-.3-.32-.56-.68-.78-1.05-.08-.14-.06-.28,.05-.4,.36-.31,.64-.68,.84-1.1-.29-.13-.57-.11-.84,.05-.25,.33-.51,.65-.78,.95-.05,.13-.07,.26-.05,.4-.23-.19-.51-.29-.84-.3v.3c.03,.16,0,.29-.1,.4-.35,.56-.75,1.16-1.2,1.81l-.89,.85c.36,.67,.53,1.39,.52,2.16-.13,.78-.28,1.55-.47,2.31-.43,.37-.93,.58-1.52,.6-.14,.22-.34,.39-.58,.5-.1-.04-.17-.11-.21-.2-.05-.37-.07-.73-.05-1.1-.28,0-.52,.06-.73,.2-.1-.28-.17-.58-.21-.9,.58-.05,.96,.19,1.15,.7,.31-.72,.59-1.46,.84-2.21-.06-.36-.18-.69-.37-1-.07-.44-.07-.87,0-1.31,.46-.88,.77-1.82,.94-2.81,.49-.63,1.01-1.24,1.57-1.81,.17-.46,.4-.9,.68-1.31,.42-.07,.84-.15,1.25-.25,.25-.26,.51-.51,.78-.75,.89-.09,1.67-.4,2.35-.95,.61-.06,.82,.19,.63,.75-.78,.45-1.21,1.12-1.31,2.01-.15,.49-.03,.89,.37,1.21Z"/>
  <path class="cls-7" d="M29.59,4.08c.24,.17,.4,.41,.47,.7,.07,.17,.07,.33,0,.5-.48,.54-1.06,.89-1.73,1.05-.48-.19-.89-.46-1.25-.8,.8-.55,1.64-1.04,2.51-1.46Z"/>
  <path class="cls-10" d="M6.17,3.88c.11,.01,.18,.08,.21,.2,.06,.27,.13,.54,.21,.8-.63,.84-1.25,1.67-1.88,2.51-.28-.65-.37-1.31-.26-2.01,.59-.49,1.17-.99,1.73-1.51Z"/>
  <path class="cls-51" d="M18.61,10.11c-.03,.23,0,.45,.1,.65-.1,.03-.21,.07-.31,.1,.13,.11,.27,.19,.42,.25-.21,.11-.4,.24-.58,.4-.05-.1-.07-.2-.05-.3-.22,0-.41-.06-.58-.2-.01-.84-.08-1.68-.21-2.51-.11-.06-.23-.09-.37-.1-.25,.08-.46,.21-.63,.4-.38-.17-.42-.41-.1-.7-.12-.11-.21-.08-.26,.1-.32-.08-.65-.13-.99-.15-.06-.04-.09-.09-.1-.15,.29,.15,.57,.13,.84-.05,.15-.24,.29-.49,.42-.75,.36-.09,.67-.26,.94-.5,.32-.56,.56-1.15,.73-1.76,.54-.24,1.06-.51,1.57-.8,.32-.05,.63-.01,.94,.1,.07,.29-.04,.55-.31,.75,.02,.06,.06,.11,.1,.15-.3,.08-.41,.25-.31,.5-.19-.1-.36-.06-.52,.1,.05,.04,.08,.09,.1,.15-.53,.46-.72,1.03-.58,1.71,.19,.12,.28,.28,.26,.5l-.47,.9c-.15,.4-.17,.8-.05,1.21Z"/>
  <path class="cls-29" d="M19.56,4.88c.11-.02,.21,0,.31,.05-.5,.46-1.09,.66-1.78,.6,.12-.1,.23-.22,.31-.35,.4-.07,.79-.17,1.15-.3Z"/>
  <path class="cls-66" d="M20.08,43.15h-.52v.7c-.83,.35-1.7,.5-2.61,.45-2.69-1.38-5.15-3.07-7.37-5.07-.2-1.64-.2-3.28,0-4.92,.96-1.46,2.14-2.73,3.56-3.82,.02-.1,.03-.2,.05-.3-.22-.58-.42-1.17-.63-1.76-.98-.03-1.95-.1-2.93-.2-.15-.05-.27-.13-.37-.25-.23-.46-.55-.86-.94-1.21-.24-.65-.02-.99,.68-1,.02-.19-.05-.34-.21-.45-.48,0-.93-.08-1.36-.25-.08,.09-.13,.19-.16,.3-.74-.23-1.28-.7-1.62-1.41-.66-.1-1.22-.39-1.67-.85,.19-.54,.24-1.09,.16-1.66-.27-.57-.6-1.11-.99-1.61,.07-.07,.14-.13,.21-.2-1.04-2-2.19-3.95-3.45-5.82,.31-.12,.62-.13,.94-.05,1.22,.95,2.51,1.81,3.87,2.56,.28,.17,.56,.33,.84,.5,.09,.23,.13,.46,.1,.7,0,.51-.03,1.01-.05,1.51,.21,.37,.5,.47,.89,.3,.28,.12,.57,.19,.89,.2,1.47-.07,2.91-.27,4.34-.6,.09-.1,.1-.2,.05-.3-.61-.56-1.19-1.14-1.73-1.76,.65-2.46,1.1-4.96,1.36-7.48,.1-.11,.13-.24,.1-.4,.32,.03,.58,.16,.78,.4,1.54,2.02,3.18,3.96,4.91,5.82l.16,.3c-.38,.7-.61,1.44-.68,2.21,.11-.12,.2-.25,.26-.4,.12-.09,.26-.13,.42-.1v.4c1.87-.43,3.65-1.08,5.33-1.96,.24-.18,.41-.39,.52-.65-.12-.45-.36-.82-.73-1.1-.03-.1-.1-.17-.21-.2-.22-.21-.4-.45-.52-.7-.03-.13-.07-.27-.1-.4,.6-.58,1.12-1.22,1.57-1.91,.66-1,1.27-2.04,1.83-3.11,.24-.1,.42-.27,.52-.5,.26,2.64,.31,5.29,.16,7.93,.06,.77,.11,1.54,.16,2.31,.14,.27,.35,.47,.63,.6,.08,.58-.13,1.05-.63,1.41-.02,.81-.07,1.61-.16,2.41-.28-.2-.56-.4-.84-.6-.33,.18-.65,.38-.94,.6,.36,.14,.71,.3,1.05,.5,.12,.63,.14,1.27,.05,1.91-.19,.28-.41,.53-.68,.75-.9,.56-1.82,1.08-2.77,1.56,.05,.64,.15,1.27,.31,1.91,.13,.45,.45,.65,.94,.6,1.43-.17,2.51-.84,3.24-2.01,.08-.4,.02-.78-.16-1.15,.09-.24,.26-.39,.52-.45,.51,.81,1.05,1.61,1.62,2.41,.34,1.14,.34,2.28,0,3.41-.85,1.05-1.74,2.07-2.67,3.06-.77,.07-1.54,.06-2.3-.05,.13,1.38,.34,2.73,.63,4.07-.03,.2-.09,.38-.21,.55,.08,.18,.15,.36,.21,.55-.4,.42-.83,.8-1.31,1.15-.69,.95-1.48,1.82-2.35,2.61Z"/>
  <path class="cls-61" d="M21.23,10.31h.63c-.09,.34-.27,.64-.52,.9-.15-.2-.36-.31-.63-.3v-.5c.2,.03,.37,0,.52-.1Z"/>
  <path class="cls-67" d="M18.51,12.22c-.18,1.09-.8,1.44-1.88,1.05-.19-.18-.31-.4-.37-.65-.02-.34-.07-.67-.16-1-.39,.2-.81,.25-1.25,.15-.29-.2-.6-.37-.94-.5,.33-.38,.64-.77,.94-1.15,0,.15-.07,.27-.21,.35,.39,.22,.78,.2,1.15-.05,.17,.09,.32,.09,.47,0,.03-.41,.12-.82,.26-1.21,.23-.09,.48-.12,.73-.1,.11,.63,.13,1.27,.05,1.91-.28,.12-.46,.02-.52-.3-.43,.45-.34,.72,.26,.8,.03,.36,.06,.73,.1,1.1,.1,.07,.21,.13,.31,.2,.13-.03,.13-.08,0-.15,.1-.05,.2-.07,.31-.05v-.3c.26,.02,.5-.01,.73-.1Z"/>
  <path class="cls-50" d="M21.23,10.31c-.15,.1-.32,.13-.52,.1v.5c.27,0,.48,.1,.63,.3-.12,.21-.22,.43-.31,.65,.1,.22,.03,.41-.21,.55,.19,.06,.33,.16,.42,.3-.19,.16-.38,.33-.58,.5-.12,1.01-.45,1.06-.99,.15-.2-.4-.3-.82-.31-1.26,.1-.28,.14-.58,.1-.9-.18-.1-.39-.13-.63-.1-.15-.06-.29-.14-.42-.25,.1-.03,.21-.07,.31-.1-.1-.2-.13-.42-.1-.65,.29,.18,.6,.23,.94,.15-.07-.03-.14-.07-.21-.1,.14-.24,.33-.3,.58-.15,.1-.37,.21-.74,.31-1.1,.11-.08,.23-.12,.37-.1,.17,.17,.24,.44,.21,.8-.23,.52-.09,.76,.42,.7Z"/>
  <path class="cls-11" d="M23.01,12.82h.31c.09-.12,.19-.24,.31-.35-.13-.14-.2-.31-.21-.5,.11-.26,.25-.51,.42-.75-.09-.23,0-.39,.26-.5,.08-.16,.06-.29-.05-.4,.3-.5,.59-1,.89-1.51-.24,.93-.49,1.87-.73,2.81-.2,.36-.39,.73-.58,1.1,.02,.06,.06,.11,.1,.15-.27,.08-.51,.06-.73-.05Z"/>
  <path class="cls-57" d="M24.05,10.31c.11,.11,.13,.24,.05,.4-.27,.11-.35,.28-.26,.5-.17,.24-.31,.49-.42,.75,.01,.19,.08,.36,.21,.5-.12,.11-.22,.23-.31,.35,0-.14,.03-.28,.1-.4-.07-.07-.14-.13-.21-.2,.13-.12,.13-.24,0-.35,.11-.13,.18-.28,.21-.45,.17-.39,.38-.76,.63-1.1Z"/>
  <path class="cls-22" d="M23.42,11.41c-.03,.17-.1,.32-.21,.45,.13,.11,.13,.23,0,.35,.07,.07,.14,.13,.21,.2-.08,.12-.11,.26-.1,.4h-.31c-.22-.02-.42-.07-.63-.15,.29-.46,.64-.88,1.05-1.26Z"/>
  <path class="cls-31" d="M14.85,10.11c-.3,.39-.61,.77-.94,1.15,.34,.13,.65,.3,.94,.5,.44,.1,.86,.05,1.25-.15,.09,.33,.14,.66,.16,1,.05,.25,.18,.47,.37,.65,1.08,.39,1.71,.03,1.88-1.05-.12-.69,.2-1.03,.94-1,.03,.32,0,.62-.1,.9-.32,.05-.37,.18-.16,.4,.02,.64,.09,1.28,.21,1.91,.05,.2,.18,.35,.37,.45,.28-.04,.56-.12,.84-.25,.27,.11,.55,.12,.84,.05,.37-.23,.71-.49,1.05-.75,.37,.29,.61,.66,.73,1.1-.11,.26-.29,.48-.52,.65-1.69,.88-3.46,1.53-5.33,1.96v-.4c-.15-.03-.29,0-.42,.1-.06,.15-.15,.28-.26,.4,.07-.77,.3-1.51,.68-2.21l-.16-.3c-1.74-1.86-3.38-3.81-4.91-5.82-.2-.24-.46-.37-.78-.4v-.3c.32,.01,.6,.11,.84,.3-.02-.14,0-.27,.05-.4,.27-.31,.54-.63,.78-.95,.27-.16,.55-.18,.84-.05-.2,.42-.48,.79-.84,1.1-.12,.12-.13,.26-.05,.4,.22,.38,.48,.73,.78,1.05,.26-.05,.52-.13,.78-.25,.11,.03,.16,.1,.16,.2Z"/>
  <path class="cls-42" d="M13.59,13.62c-.1-.02-.21,.03-.31,.15,.1,.42,.35,.74,.73,.95,.02,.27,0,.54-.05,.8-.02-.19-.07-.36-.16-.5-.09-.12-.19-.12-.31,0-.34-1.13-.67-2.27-.99-3.41-.16-.48-.35-.95-.58-1.41,.08-.12,.17-.12,.26,0,.45,.65,.92,1.29,1.41,1.91-.1,.08-.17,.18-.21,.3,.18,.19,.29,.43,.31,.7,0,.18-.04,.34-.1,.5Z"/>
  <path class="cls-3" d="M21.75,13.02c.13,.26,.3,.49,.52,.7-.31,.27-.63,.53-.94,.8-.16-.2-.23-.4-.21-.6,.21-.3,.42-.61,.63-.9Z"/>
  <path class="cls-1" d="M13.59,13.62c.24,.13,.49,.13,.73,0,.1,.15,.22,.28,.37,.4,.02,.23,.08,.44,.16,.65-.2,.04-.38,.12-.52,.25-.11-.07-.21-.14-.31-.2-.38-.22-.63-.54-.73-.95,.1-.12,.21-.17,.31-.15Z"/>
  <path class="cls-63" d="M19.35,12.12c.01,.44,.12,.86,.31,1.26,.55,.91,.88,.86,.99-.15,.19-.17,.38-.34,.58-.5,.1-.06,.21-.13,.31-.2,.06,.01,.1,.05,.1,.1,.03,.13,.07,.27,.1,.4-.2,.3-.41,.6-.63,.9-.02,.2,.05,.4,.21,.6,.32-.27,.63-.54,.94-.8,.1,.03,.17,.1,.21,.2-.33,.27-.68,.52-1.05,.75-.29,.07-.56,.06-.84-.05-.28,.13-.56,.21-.84,.25-.19-.1-.31-.25-.37-.45-.12-.63-.19-1.27-.21-1.91-.22-.22-.16-.36,.16-.4Z"/>
  <path class="cls-44" d="M11.71,15.43c-.05-.71-.16-1.41-.31-2.11-.02-.2,0-.4,.05-.6,.23,.89,.31,1.79,.26,2.71Z"/>
  <path class="cls-31" d="M11.4,9.4c-.26,2.53-.71,5.02-1.36,7.48,.54,.61,1.11,1.2,1.73,1.76,.05,.11,.03,.21-.05,.3-1.43,.33-2.87,.53-4.34,.6-.32-.01-.61-.08-.89-.2-.39,.17-.68,.07-.89-.3,.03-.5,.04-1,.05-1.51,.1-.14,.13-.31,.1-.5h.52v-.5c.21-.14,.45-.21,.73-.2-.02,.37,0,.74,.05,1.1,.04,.09,.11,.16,.21,.2,.24-.11,.43-.28,.58-.5,.58-.03,1.09-.23,1.52-.6,.19-.76,.35-1.53,.47-2.31,.01-.77-.16-1.49-.52-2.16l.89-.85c.45-.65,.85-1.25,1.2-1.81Z"/>
  <path class="cls-54" d="M13.91,16.84c-.07-.4-.1-.8-.1-1.21v-.6c.08,.15,.14,.31,.16,.5,.05-.27,.07-.53,.05-.8,.1,.06,.21,.13,.31,.2,.15-.13,.32-.21,.52-.25-.08-.21-.13-.43-.16-.65-.14-.12-.27-.25-.37-.4,.12-.13,.25-.18,.42-.15,.15,.21,.29,.43,.42,.65-.1,.39-.13,.8-.1,1.21-.29,.03-.55,.13-.78,.3-.04,.37-.11,.74-.21,1.1-.04,.06-.09,.09-.16,.1Z"/>
  <path class="cls-36" d="M2.82,15.63c-.11,.04-.12,.11-.05,.2,.47,.51,.94,1.02,1.41,1.51,.06,.09,.1,.19,.1,.3-1.08-.98-2.14-1.99-3.19-3.01-.07-.07-.07-.13,0-.2,.59,.39,1.17,.79,1.73,1.21Z"/>
  <path class="cls-59" d="M16.52,19.95c.01,.07,0,.14-.05,.2-.14-.09-.3-.12-.47-.1-.13-.04-.23-.11-.31-.2-.13-.48-.23-.97-.31-1.46,.12-.28,.24-.57,.37-.85,.1-.29,.03-.52-.21-.7-.22,.08-.44,.13-.68,.15-.15,.33-.36,.62-.63,.85-.03-.07-.07-.13-.1-.2,.45-.57,.73-1.2,.84-1.91,.17,.02,.33-.01,.47-.1,.02-.34,.07-.67,.16-1,.36,.33,.65,.69,.89,1.1,.09,.31,.02,.57-.21,.8-.16,.74-.31,1.47-.47,2.21,.06,.5,.31,.9,.73,1.21Z"/>
  <path class="cls-52" d="M24.16,16.63c.05-.27,.15-.52,.31-.75-.06-.18-.13-.37-.21-.55-.07,.15-.14,.28-.21,.4,.02-.4,0-.8-.05-1.21-.23-.3-.45-.6-.68-.9,.21-.18,.46-.23,.73-.15,.61,1.13,.68,2.22,.21,3.26-.06-.01-.1-.05-.1-.1Z"/>
  <path class="cls-17" d="M24.16,16.63c-.08-.14-.15-.12-.21,.05-.07,.14-.1,.3-.1,.45-.27,0-.48,.1-.63,.3,0-.11-.04-.21-.1-.3,.4-.42,.72-.89,.94-1.41,.07-.12,.14-.26,.21-.4,.08,.18,.15,.37,.21,.55-.16,.23-.26,.49-.31,.75Z"/>
  <path class="cls-16" d="M2.82,15.63c.53,.44,1.09,.85,1.67,1.21-.23,.08-.34,.25-.31,.5-.47-.49-.94-.99-1.41-1.51-.07-.09-.05-.16,.05-.2Z"/>
  <path class="cls-55" d="M11.71,15.43c.21-.02,.42,0,.63,.05,.2,.37,.35,.75,.47,1.15,.3,.14,.58,.1,.84-.1,.02-.32,.07-.62,.16-.9,0,.41,.04,.81,.1,1.21v.3c-.46,.05-.91,.14-1.36,.25-.24,.17-.41,.39-.52,.65-.21-.17-.42-.34-.63-.5,.09,.01,.16-.02,.21-.1-.12-.18-.19-.38-.21-.6,.02-.29,.05-.54,.1-.75-.07-.13-.17-.23-.31-.3,.19-.1,.37-.22,.52-.35Z"/>
  <path class="cls-49" d="M11.4,13.32c.16,.7,.26,1.4,.31,2.11-.16,.13-.33,.25-.52,.35,.14,.07,.24,.17,.31,.3-.05,.22-.08,.47-.1,.75,.02,.22,.09,.42,.21,.6-.05,.08-.12,.11-.21,.1-.3-.15-.47-.39-.52-.7,.16-1.17,.33-2.35,.52-3.51Z"/>
  <path class="cls-38" d="M24.16,16.63c-.16,.31-.26,.64-.31,1,.09,.38,.18,.74,.26,1.1-.23-.48-.53-.91-.89-1.31,.15-.2,.36-.31,.63-.3,0-.16,.04-.31,.1-.45,.06-.17,.13-.19,.21-.05Z"/>
  <path class="cls-34" d="M4.5,16.84c.28,.12,.49,.3,.63,.55-.03,.13-.1,.23-.21,.3-.23,.08-.44,.06-.63-.05,0-.11-.04-.21-.1-.3-.03-.25,.08-.42,.31-.5Z"/>
  <path class="cls-37" d="M21.23,17.14c.38,.02,.41,.13,.1,.35-.28,.05-.56,.07-.84,.05,0,.17-.07,.3-.21,.4-.38,.17-.76,.3-1.15,.4v-.5c.66-.31,1.36-.55,2.09-.7Z"/>
  <path class="cls-58" d="M19.97,18.74c-.05-.2-.17-.2-.37,0l-.1-.1c-.79,.13-1.54,.27-2.25,.4-.18,.12-.25,.05-.21-.2,.15,.03,.29,0,.42-.1,.19-.12,.29-.29,.31-.5,.09,.07,.13,.17,.1,.3,.36,0,.71-.05,1.05-.15,.06-.2,.13-.38,.21-.55v.5c.39-.1,.77-.24,1.15-.4,.14-.1,.21-.24,.21-.4,.28,.02,.56,0,.84-.05,.31-.22,.28-.34-.1-.35,.65-.38,.84-.25,.58,.4-.75,.22-1.36,.62-1.83,1.21Z"/>
  <path class="cls-47" d="M15.69,19.85h-.42c-.13-.15-.13-.3,0-.45-.19-.21-.31-.46-.37-.75l-.1,.1c-.01-.25-.12-.45-.31-.6-.05,.06-.07,.13-.05,.2-.08-.15-.15-.32-.21-.5,.27-.24,.48-.52,.63-.85,.24-.02,.46-.07,.68-.15,.24,.18,.31,.42,.21,.7-.12,.28-.24,.57-.37,.85,.08,.49,.19,.97,.31,1.46Z"/>
  <path class="cls-5" d="M19.97,18.74c-.07,.39-.24,.73-.52,1-.06-.34-.23-.61-.52-.8l-.1,.1,.21,.2c-.18,.26-.39,.49-.63,.7,.38,.36,.73,.33,1.05-.1,.2,.07,.4,.13,.63,.2-.34,.49-.24,.85,.31,1.1,.02,.21-.02,.41-.1,.6-.2,.12-.39,.26-.58,.4-.07-.24-.16-.47-.26-.7-.21,.13-.42,.13-.63,0,.04-.28,.09-.55,.16-.8-.68-.42-1.36-.82-2.04-1.21,.17-.07,.34-.12,.52-.15-.09-.07-.16-.15-.21-.25,.71-.13,1.46-.27,2.25-.4l.1,.1c.19-.2,.31-.2,.37,0Z"/>
  <path class="cls-39" d="M17.78,18.24c-.02,.21-.13,.38-.31,.5-.12,.09-.26,.13-.42,.1-.04,.25,.03,.32,.21,.2,.05,.1,.12,.18,.21,.25-.18,.04-.36,.09-.52,.15-.37-.77-.09-1.17,.84-1.21Z"/>
  <path class="cls-30" d="M5.23,20.05c-.13,.07-.13,.15,0,.25-.1,.03-.17,.08-.21,.15-.14-.11-.26-.25-.37-.4-.09-.63-.15-1.27-.16-1.91,.21-.03,.42-.07,.63-.1,.01,.67,.05,1.34,.1,2.01Z"/>
  <path class="cls-15" d="M12.86,17.74c.15-.03,.29,0,.42,.1,.06,.15,.15,.28,.26,.4,.04,.12,.02,.23-.05,.35,.1,.21,.19,.43,.26,.65,.14,.07,.28,.13,.42,.2,.09,.29,.17,.57,.26,.85-.25,.08-.48,.2-.68,.35-.07,.36-.06,.71,.05,1.05-.25,.39-.42,.81-.52,1.26-.3-.15-.58-.35-.84-.6,.35-.7,.7-1.41,1.05-2.11-.05-.47-.24-.87-.58-1.21-.05-.43-.07-.87-.05-1.31Z"/>
  <path class="cls-4" d="M19.45,19.75v.1c-.32,.43-.66,.46-1.05,.1,.24-.21,.45-.44,.63-.7l-.21-.2,.1-.1c.29,.2,.46,.47,.52,.8Z"/>
  <path class="cls-9" d="M20.91,19.25c.39,.14,.77,.3,1.15,.5-.36,.43-.82,.73-1.36,.9-.16,0-.26-.06-.31-.2,.21-.38,.39-.79,.52-1.21Z"/>
  <path class="cls-6" d="M11.82,19.75c.12-.02,.23,.01,.31,.1-.31,.06-.59,.18-.84,.35-.28,.03-.56,.07-.84,.1-.13,.38-.37,.5-.73,.35-.17-.11-.32-.24-.47-.4-.06-.1-.03-.17,.1-.2,.82-.12,1.64-.22,2.46-.3Z"/>
  <path class="cls-24" d="M15.27,19.85c0,.29,.03,.57,.1,.85-.02,.14-.09,.22-.21,.25-.11-.01-.18-.08-.21-.2-.17-.81-.35-1.61-.52-2.41-.01-.07,0-.14,.05-.2,.2,.15,.3,.35,.31,.6l.1-.1c.05,.29,.17,.54,.37,.75-.13,.15-.13,.3,0,.45Z"/>
  <path class="cls-13" d="M7.63,20.15c.21-.02,.42,0,.63,.05,.16,.36,.41,.66,.73,.9-.11,.14-.25,.17-.42,.1-.45-.19-.86-.43-1.25-.7,.09-.14,.2-.25,.31-.35Z"/>
  <path class="cls-56" d="M11.82,19.75c.33-.18,.51-.08,.52,.3h.31c-.01,.17-.05,.34-.1,.5-.5-.06-1.01-.13-1.52-.2-.18,.05-.34,.13-.47,.25,.03,.03,.07,.07,.1,.1-.23,.06-.44,.14-.63,.25-.12-.08-.23-.18-.31-.3,.36,.15,.6,.03,.73-.35,.28-.03,.56-.07,.84-.1,.25-.17,.53-.29,.84-.35-.09-.09-.19-.12-.31-.1Z"/>
  <path class="cls-20" d="M21.75,20.45c.08-.01,.15,0,.21,.05-.07,.4-.31,.62-.73,.65-.02-.14,0-.27,.05-.4,.17-.09,.33-.19,.47-.3Z"/>
  <path class="cls-62" d="M16.52,19.95c.49,.47,1.05,.84,1.67,1.1,.03,.19-.04,.32-.21,.4-.69-.04-1.16-.38-1.41-1-.19-.15-.38-.29-.58-.4,.17-.02,.33,.01,.47,.1,.05-.06,.07-.13,.05-.2Z"/>
  <path class="cls-41" d="M5.23,20.05c.38,.45,.87,.75,1.46,.9-.05,.14-.15,.21-.31,.2-.6,.03-1.05-.21-1.36-.7,.04-.07,.11-.12,.21-.15-.13-.1-.13-.18,0-.25Z"/>
  <path class="cls-64" d="M23.74,19.95h.31c-.01,.33,.04,.63,.16,.9-.58,.35-1.18,.69-1.78,1,.11-.48,.28-.95,.52-1.41,.1,.07,.21,.13,.31,.2,.16-.24,.31-.47,.47-.7Z"/>
  <path class="cls-27" d="M14.75,22.76c.14-.13,.14-.26,0-.4,.16-.17,.33-.32,.52-.45-.11-.22-.28-.34-.52-.35,.04-.17,.14-.22,.31-.15,.37,.19,.71,.41,1.05,.65-.41,.33-.86,.56-1.36,.7Z"/>
  <path class="cls-25" d="M20.39,21.15c.24,.09,.44,.23,.63,.4-.12,.39-.3,.76-.52,1.1-.64,.29-1.3,.53-1.99,.7,.1-.26,.2-.53,.31-.8-.08-.2-.19-.38-.31-.55,.04-.23,.14-.41,.31-.55,.21,.13,.41,.13,.63,0,.1,.23,.19,.46,.26,.7,.18-.15,.37-.28,.58-.4,.09-.19,.12-.39,.1-.6Z"/>
  <path class="cls-12" d="M15.27,19.85h.42c.08,.09,.19,.16,.31,.2,.2,.11,.39,.25,.58,.4,.25,.63,.72,.96,1.41,1-.53,1.14-1.14,2.24-1.83,3.31l-.16-.6c.31-.69,.59-1.4,.84-2.11-.53-.42-1.09-.79-1.67-1.1,.12-.03,.19-.11,.21-.25-.07-.28-.11-.57-.1-.85Z"/>
  <path class="cls-48" d="M9.2,21.96c.52,.21,.97,.53,1.36,.95-.55,.17-1.11,.19-1.67,.05-.03-.05-.07-.1-.1-.15,.18-.27,.32-.55,.42-.85Z"/>
  <path class="cls-28" d="M14.75,21.56c.24,.02,.42,.13,.52,.35-.19,.13-.36,.28-.52,.45,.14,.14,.14,.27,0,.4-.22,.1-.46,.13-.73,.1,.07-.53,.31-.97,.73-1.31Z"/>
  <path class="cls-60" d="M12.55,20.55c-.23,.61-.49,1.21-.78,1.81-.16,.43,0,.65,.47,.65,.31,.23,.63,.47,.94,.7,.25,.27,.53,.52,.84,.75-.52,.27-1.08,.36-1.67,.25l-1.1-1.05c-.12-.29-.19-.59-.21-.9l-.31-.3c-.05-.4-.07-.8-.05-1.21-.26-.02-.47-.12-.63-.3,.19-.11,.4-.19,.63-.25-.03-.03-.07-.07-.1-.1,.13-.12,.29-.21,.47-.25,.51,.07,1.01,.14,1.52,.2Z"/>
  <path class="cls-40" d="M15.69,22.76c.08-.01,.15,0,.21,.05-.27,.7-.72,.84-1.36,.4,.44-.04,.82-.2,1.15-.45Z"/>
  <path class="cls-65" d="M6.69,20.95c.12,.99,.11,1.99-.05,3.01-.07-.13-.14-.27-.21-.4,.02-.81,0-1.61-.05-2.41,.16,0,.26-.06,.31-.2Z"/>
  <path class="cls-53" d="M20.5,26.18c-.06-.14-.07-.27-.05-.4,.08,.1,.16,.11,.26,.05,.42-.32,.73-.7,.94-1.15,0-.09-.04-.16-.1-.2,.57-.32,1.16-.63,1.78-.9,.13,.2,.13,.4,0,.6-.32,.22-.67,.39-1.05,.5-.1,.26-.14,.53-.1,.8-.55,.23-1.11,.47-1.67,.7Z"/>
  <path class="cls-18" d="M21.54,24.47c.07,.04,.1,.11,.1,.2-.21,.45-.52,.84-.94,1.15-.1,.06-.19,.05-.26-.05-.02,.13,0,.27,.05,.4-.42,.12-.83,.29-1.2,.5,.03-.73,.42-1.23,1.15-1.51,.03-.13,.08-.24,.16-.35,.31-.13,.63-.24,.94-.35Z"/>
  <path class="cls-21" d="M16.73,27.18c0-.2-.07-.42-.21-.65-.31,.05-.62,.05-.94,0-.13-.04-.2-.13-.21-.25,1.15-.19,2.27-.49,3.35-.9,.1,.21,.24,.24,.42,.1,.1,.3-.02,.5-.37,.6-.08,.26-.17,.51-.26,.75-.58,.2-1.17,.31-1.78,.35Z"/>
  <path class="cls-2" d="M15.37,26.28c0,.13,.08,.21,.21,.25,.32,.05,.63,.05,.94,0,.14,.23,.21,.45,.21,.65-.68,.23-1.4,.37-2.14,.4-.14,0-.27-.03-.37-.1-.18-.44-.53-.66-1.05-.65,.11-.08,.11-.16,0-.25,.72-.12,1.45-.22,2.2-.3Z"/>
  <path class="cls-8" d="M13.18,26.58c.11,.09,.11,.17,0,.25,.52,0,.87,.21,1.05,.65-.33-.14-.64-.31-.94-.5-.13,.19-.27,.38-.42,.55-.1,.05-.2,.07-.31,.05-.02-.3,0-.6,.05-.9,.18-.09,.37-.12,.58-.1Z"/>
  <path class="cls-45" d="M20.91,33.1c-.16,.08-.34,.11-.52,.1v-.3c-.15,0-.29-.03-.42-.1-.07-.48-.18-.95-.31-1.41,.03-.17,.1-.32,.21-.45-.07-.11-.12-.22-.16-.35-.08-.06-.16-.09-.26-.1-.29,.18-.5,.44-.63,.75-.14,.05-.27,.07-.42,.05-.12-.67-.26-1.34-.42-2.01,.3-.46,.72-.75,1.25-.85l-.16,.15c-.34,1.32-.03,1.56,.94,.7,.03,.07,.07,.13,.1,.2,.13-.16,.28-.27,.47-.35,.12-.24,.28-.46,.47-.65,.15,.93,.35,1.85,.58,2.76-.02,.08-.03,.17-.05,.25-.53,.27-.84,.67-.94,1.21,.11,.11,.23,.21,.37,.3-.01,.06-.05,.09-.1,.1Z"/>
  <path class="cls-23" d="M17.15,30.29c.16,.7,.3,1.4,.42,2.11v.4c-.32,0-.54-.13-.68-.4-.1-.36-.17-.73-.21-1.1-.18-.17-.35-.34-.52-.5-.02-.27,0-.53,.05-.8h.84c-.02,.13,.01,.23,.1,.3Z"/>
  <path class="cls-14" d="M17.15,30.29c-.09-.07-.13-.17-.1-.3h-.84c-.05,.27-.07,.54-.05,.8,.17,.17,.34,.33,.52,.5,.04,.37,.11,.74,.21,1.1,.14,.27,.36,.41,.68,.4v-.4c.15,.51,.21,1.05,.16,1.61-.64-.43-1.28-.85-1.93-1.26-.35-.3-.7-.6-1.05-.9,.17-.13,.31-.28,.42-.45-.18-.23-.32-.48-.42-.75,.17-.17,.35-.33,.52-.5-.38-.59-.22-.94,.47-1.05,.53,.14,.99,.41,1.36,.8,.05,.13,.07,.26,.05,.4Z"/>
  <path class="cls-33" d="M26.87,27.38c.29,.16,.48,.39,.58,.7,.42,.96,.46,1.93,.1,2.91-.82,.85-1.67,1.67-2.56,2.46-.66,.05-1.32,.07-1.99,.05v-.3c.76,0,1.39-.26,1.88-.8-.25-.27-.56-.4-.94-.4-.39,.07-.77,.17-1.15,.3-.27-.4-.35-.84-.26-1.31,.62-.21,1.27-.33,1.93-.35,.4-.1,.79-.26,1.15-.45,.71-.82,1.12-1.76,1.25-2.81Z"/>
  <path class="cls-32" d="M26.35,30.09c.2,.14,.39,.31,.58,.5,.07,.1,.07,.2,0,.3-.41,.34-.81,.69-1.2,1.05-.73-.01-.91-.33-.52-.95,.41-.28,.79-.59,1.15-.9Z"/>
  <path class="cls-26" d="M19.66,31.4c.13,.46,.24,.93,.31,1.41,.13,.07,.27,.11,.42,.1v.3c.19,.01,.36-.02,.52-.1-.1,.31-.18,.61-.26,.9,.15,.28,.35,.53,.58,.75,.14,.05,.27,.07,.42,.05-.19-.38-.4-.77-.63-1.15,.13-.31,.3-.33,.52-.05,.06-.02,.11-.05,.16-.1-.04-.51-.11-1.01-.21-1.51,.07-.07,.14-.13,.21-.2,.24,.79,.41,1.59,.52,2.41l.16,.15c-.37,.26-.69,.58-.94,.95-.09,.09-.19,.12-.31,.1-.02-.49-.27-.79-.73-.9,.03,.15,0,.28-.1,.4-.28-.24-.55-.51-.78-.8-.05-.28,0-.55,.16-.8-.23-.28-.51-.51-.84-.7-.07-.17-.14-.33-.21-.5,.35-.23,.69-.46,1.05-.7Z"/>
  <path class="cls-46" d="M14.12,33.51c-.47-.34-1-.39-1.57-.15-.47,.31-.5,.63-.1,.95-.08,.23-.11,.46-.1,.7-.08-.11-.13-.25-.16-.4-.2,.4-.2,.8,0,1.21,.49,.52,.96,1.06,1.41,1.61-.55-.04-1.07-.18-1.57-.4-.07-.25-.22-.41-.47-.5-.05-.37-.07-.73-.05-1.1-.93,.02-.97-.15-.1-.5,.09-.43,.14-.87,.16-1.31,.13-.06,.25-.12,.37-.2,.47-.67,.96-1.32,1.46-1.96,.13-.05,.22,0,.26,.15,.19,.63,.35,1.27,.47,1.91Z"/>
</svg>